<mxfile host="65bd71144e" pages="2">
    <diagram id="rRwRrmsIW1T0hQYLPN04" name="data-flow-v1">
        <mxGraphModel dx="1206" dy="678" grid="1" gridSize="10" guides="1" tooltips="1" connect="1" arrows="1" fold="1" page="0" pageScale="1" pageWidth="850" pageHeight="1100" math="0" shadow="0">
            <root>
                <mxCell id="0"/>
                <mxCell id="1" parent="0"/>
                <mxCell id="3B7FvWh_ksODp5pONTqw-6" style="edgeStyle=orthogonalEdgeStyle;rounded=1;orthogonalLoop=1;jettySize=auto;html=1;entryX=0.5;entryY=0;entryDx=0;entryDy=0;entryPerimeter=0;" parent="1" source="L69Xl0EkuoueC68m-8wU-2" target="3B7FvWh_ksODp5pONTqw-4" edge="1">
                    <mxGeometry relative="1" as="geometry">
                        <Array as="points">
                            <mxPoint x="290" y="292.5"/>
                            <mxPoint x="170" y="292.5"/>
                            <mxPoint x="170" y="352.5"/>
                        </Array>
                    </mxGeometry>
                </mxCell>
                <mxCell id="3B7FvWh_ksODp5pONTqw-7" style="edgeStyle=orthogonalEdgeStyle;rounded=1;orthogonalLoop=1;jettySize=auto;html=1;entryX=0.5;entryY=0;entryDx=0;entryDy=0;entryPerimeter=0;" parent="1" source="L69Xl0EkuoueC68m-8wU-2" target="3B7FvWh_ksODp5pONTqw-5" edge="1">
                    <mxGeometry relative="1" as="geometry">
                        <Array as="points">
                            <mxPoint x="290" y="292.5"/>
                            <mxPoint x="410" y="292.5"/>
                            <mxPoint x="410" y="352.5"/>
                        </Array>
                    </mxGeometry>
                </mxCell>
                <mxCell id="L69Xl0EkuoueC68m-8wU-2" value="" style="shape=cylinder3;whiteSpace=wrap;html=1;boundedLbl=1;backgroundOutline=1;size=15;" parent="1" vertex="1">
                    <mxGeometry x="250" y="82.5" width="80" height="140" as="geometry"/>
                </mxCell>
                <mxCell id="L69Xl0EkuoueC68m-8wU-3" value="&lt;h1&gt;Datalake / -warehouse&lt;br&gt;&lt;/h1&gt;&lt;p&gt;Zusammenführung von unterschiedlichen Datenquellen aus der Literatur:&lt;/p&gt;&lt;p&gt;- Tweets (Sältzer, Wong et al., Gimpel et al.)&lt;br&gt;- Politische Reden (Richter et al., Biessmann et al.)&lt;br&gt;- Parteiprogramme&lt;/p&gt;&lt;p&gt;CRISP-DM:&lt;/p&gt;&lt;p&gt;- Business Understanding&lt;br&gt;- Data Understanding&lt;br&gt;- (Data Preperation)&lt;br&gt;&lt;/p&gt;" style="text;html=1;strokeColor=none;fillColor=none;spacing=5;spacingTop=-20;whiteSpace=wrap;overflow=hidden;rounded=0;" parent="1" vertex="1">
                    <mxGeometry x="370" y="40" width="280" height="225" as="geometry"/>
                </mxCell>
                <mxCell id="3B7FvWh_ksODp5pONTqw-9" style="edgeStyle=orthogonalEdgeStyle;rounded=1;orthogonalLoop=1;jettySize=auto;html=1;entryX=0.5;entryY=0;entryDx=0;entryDy=0;" parent="1" source="3B7FvWh_ksODp5pONTqw-4" target="3B7FvWh_ksODp5pONTqw-8" edge="1">
                    <mxGeometry relative="1" as="geometry">
                        <mxPoint x="320" y="492.5" as="targetPoint"/>
                        <Array as="points">
                            <mxPoint x="170" y="472.5"/>
                            <mxPoint x="290" y="472.5"/>
                            <mxPoint x="290" y="522.5"/>
                        </Array>
                    </mxGeometry>
                </mxCell>
                <mxCell id="3B7FvWh_ksODp5pONTqw-10" value="trainiert" style="edgeLabel;html=1;align=center;verticalAlign=middle;resizable=0;points=[];" parent="3B7FvWh_ksODp5pONTqw-9" vertex="1" connectable="0">
                    <mxGeometry x="-0.2942" y="-1" relative="1" as="geometry">
                        <mxPoint x="38" y="-1" as="offset"/>
                    </mxGeometry>
                </mxCell>
                <mxCell id="3B7FvWh_ksODp5pONTqw-4" value="80" style="shape=cylinder3;whiteSpace=wrap;html=1;boundedLbl=1;backgroundOutline=1;size=15;" parent="1" vertex="1">
                    <mxGeometry x="145" y="352.5" width="50" height="60" as="geometry"/>
                </mxCell>
                <mxCell id="3B7FvWh_ksODp5pONTqw-11" style="edgeStyle=orthogonalEdgeStyle;rounded=1;orthogonalLoop=1;jettySize=auto;html=1;entryX=0.5;entryY=0;entryDx=0;entryDy=0;" parent="1" source="3B7FvWh_ksODp5pONTqw-5" target="3B7FvWh_ksODp5pONTqw-8" edge="1">
                    <mxGeometry relative="1" as="geometry">
                        <Array as="points">
                            <mxPoint x="410" y="472.5"/>
                            <mxPoint x="290" y="472.5"/>
                            <mxPoint x="290" y="522.5"/>
                        </Array>
                    </mxGeometry>
                </mxCell>
                <mxCell id="3B7FvWh_ksODp5pONTqw-12" value="validiert" style="edgeLabel;html=1;align=center;verticalAlign=middle;resizable=0;points=[];" parent="3B7FvWh_ksODp5pONTqw-11" vertex="1" connectable="0">
                    <mxGeometry x="-0.1187" y="-1" relative="1" as="geometry">
                        <mxPoint x="-15" y="1" as="offset"/>
                    </mxGeometry>
                </mxCell>
                <mxCell id="3B7FvWh_ksODp5pONTqw-5" value="20" style="shape=cylinder3;whiteSpace=wrap;html=1;boundedLbl=1;backgroundOutline=1;size=15;" parent="1" vertex="1">
                    <mxGeometry x="385" y="352.5" width="50" height="60" as="geometry"/>
                </mxCell>
                <mxCell id="3B7FvWh_ksODp5pONTqw-13" value="Vortrainierte NLP Modelle" style="ellipse;whiteSpace=wrap;html=1;" parent="1" vertex="1">
                    <mxGeometry x="680" y="522.5" width="105" height="60" as="geometry"/>
                </mxCell>
                <mxCell id="3B7FvWh_ksODp5pONTqw-14" value="&lt;div&gt;Unbekannte&lt;br&gt;Daten&lt;br&gt;&lt;/div&gt;" style="ellipse;shape=cloud;whiteSpace=wrap;html=1;" parent="1" vertex="1">
                    <mxGeometry x="450" y="512.5" width="120" height="80" as="geometry"/>
                </mxCell>
                <mxCell id="3B7FvWh_ksODp5pONTqw-15" value="&lt;h1&gt;Train- &amp;amp; Test-Split&lt;br&gt;&lt;/h1&gt;&lt;p&gt;Aufteilung der Multisource Daten in Trainings- und Test-Daten&lt;/p&gt;&lt;p&gt;CRISP-DM:&lt;/p&gt;&lt;p&gt;- Data Preperation&lt;/p&gt;" style="text;html=1;strokeColor=none;fillColor=none;spacing=5;spacingTop=-20;whiteSpace=wrap;overflow=hidden;rounded=0;" parent="1" vertex="1">
                    <mxGeometry x="480" y="315" width="220" height="135" as="geometry"/>
                </mxCell>
                <mxCell id="3B7FvWh_ksODp5pONTqw-16" value="" style="rounded=1;whiteSpace=wrap;html=1;fillColor=default;" parent="1" vertex="1">
                    <mxGeometry x="375" y="682.5" width="280" height="140" as="geometry"/>
                </mxCell>
                <mxCell id="3B7FvWh_ksODp5pONTqw-17" value="Klassifikations-ergebniss" style="shape=hexagon;perimeter=hexagonPerimeter2;whiteSpace=wrap;html=1;fixedSize=1;fillColor=default;" parent="1" vertex="1">
                    <mxGeometry x="390" y="722.5" width="115" height="60" as="geometry"/>
                </mxCell>
                <mxCell id="3B7FvWh_ksODp5pONTqw-18" value="NLP / Sentiment&lt;br&gt;Analysen" style="shape=hexagon;perimeter=hexagonPerimeter2;whiteSpace=wrap;html=1;fixedSize=1;fillColor=default;" parent="1" vertex="1">
                    <mxGeometry x="525" y="722.5" width="115" height="60" as="geometry"/>
                </mxCell>
                <mxCell id="3B7FvWh_ksODp5pONTqw-23" value="&lt;h1&gt;Analyse&lt;/h1&gt;&lt;p&gt;Mögliche Analysen sind:&lt;/p&gt;&lt;p&gt;- Trend Detection&lt;br&gt;- Parteiflügel&lt;br&gt;- (Validierung auf neuen Datensätzen)&lt;br&gt;&lt;/p&gt;" style="text;html=1;strokeColor=none;fillColor=none;spacing=5;spacingTop=-20;whiteSpace=wrap;overflow=hidden;rounded=0;" parent="1" vertex="1">
                    <mxGeometry x="700" y="682.5" width="150" height="140" as="geometry"/>
                </mxCell>
                <mxCell id="3B7FvWh_ksODp5pONTqw-24" value="&lt;h1&gt;Modeling&lt;br&gt;&lt;/h1&gt;&lt;p&gt;Trainieren von Modellen zur klassifikation von Texten und Wörtern.&lt;br&gt;&lt;/p&gt;&lt;p&gt;CRISP-DM:&lt;/p&gt;&lt;p&gt;- Modeling&lt;br&gt;- Evaluation (Validierung)&lt;br&gt;&lt;/p&gt;" style="text;html=1;strokeColor=none;fillColor=none;spacing=5;spacingTop=-20;whiteSpace=wrap;overflow=hidden;rounded=0;" parent="1" vertex="1">
                    <mxGeometry y="477.5" width="170" height="170" as="geometry"/>
                </mxCell>
                <mxCell id="3B7FvWh_ksODp5pONTqw-25" value="3" style="ellipse;whiteSpace=wrap;html=1;fillColor=default;" parent="1" vertex="1">
                    <mxGeometry x="305" y="502.5" width="70" height="50" as="geometry"/>
                </mxCell>
                <mxCell id="3B7FvWh_ksODp5pONTqw-26" value="2" style="ellipse;whiteSpace=wrap;html=1;fillColor=default;" parent="1" vertex="1">
                    <mxGeometry x="210" y="502.5" width="70" height="50" as="geometry"/>
                </mxCell>
                <mxCell id="3B7FvWh_ksODp5pONTqw-8" value="Modell 1" style="ellipse;whiteSpace=wrap;html=1;" parent="1" vertex="1">
                    <mxGeometry x="237.5" y="522.5" width="105" height="60" as="geometry"/>
                </mxCell>
                <mxCell id="3B7FvWh_ksODp5pONTqw-22" style="edgeStyle=orthogonalEdgeStyle;rounded=1;orthogonalLoop=1;jettySize=auto;html=1;entryX=0.5;entryY=0;entryDx=0;entryDy=0;" parent="1" source="3B7FvWh_ksODp5pONTqw-8" target="3B7FvWh_ksODp5pONTqw-17" edge="1">
                    <mxGeometry relative="1" as="geometry">
                        <Array as="points">
                            <mxPoint x="290" y="642.5"/>
                            <mxPoint x="448" y="642.5"/>
                        </Array>
                    </mxGeometry>
                </mxCell>
                <mxCell id="3B7FvWh_ksODp5pONTqw-20" style="edgeStyle=orthogonalEdgeStyle;rounded=1;orthogonalLoop=1;jettySize=auto;html=1;entryX=0.5;entryY=0;entryDx=0;entryDy=0;" parent="1" source="3B7FvWh_ksODp5pONTqw-13" target="3B7FvWh_ksODp5pONTqw-18" edge="1">
                    <mxGeometry relative="1" as="geometry">
                        <Array as="points">
                            <mxPoint x="732" y="642.5"/>
                            <mxPoint x="582" y="642.5"/>
                        </Array>
                    </mxGeometry>
                </mxCell>
                <mxCell id="3B7FvWh_ksODp5pONTqw-19" style="edgeStyle=orthogonalEdgeStyle;rounded=1;orthogonalLoop=1;jettySize=auto;html=1;" parent="1" source="3B7FvWh_ksODp5pONTqw-14" target="3B7FvWh_ksODp5pONTqw-18" edge="1">
                    <mxGeometry relative="1" as="geometry">
                        <Array as="points">
                            <mxPoint x="530" y="642.5"/>
                            <mxPoint x="582" y="642.5"/>
                        </Array>
                    </mxGeometry>
                </mxCell>
                <mxCell id="3B7FvWh_ksODp5pONTqw-21" style="edgeStyle=orthogonalEdgeStyle;rounded=1;orthogonalLoop=1;jettySize=auto;html=1;entryX=0.5;entryY=0;entryDx=0;entryDy=0;" parent="1" source="3B7FvWh_ksODp5pONTqw-14" target="3B7FvWh_ksODp5pONTqw-17" edge="1">
                    <mxGeometry relative="1" as="geometry">
                        <Array as="points">
                            <mxPoint x="490" y="642.5"/>
                            <mxPoint x="448" y="642.5"/>
                        </Array>
                    </mxGeometry>
                </mxCell>
            </root>
        </mxGraphModel>
    </diagram>
    <diagram name="data-flow-v2" id="GLql5ncAR8zVc7t_Mhv9">
        <mxGraphModel dx="1206" dy="678" grid="1" gridSize="10" guides="1" tooltips="1" connect="1" arrows="1" fold="1" page="1" pageScale="1" pageWidth="827" pageHeight="1169" math="0" shadow="0">
            <root>
                <mxCell id="ZOIrYFhIdx7JoIVTX3PV-0"/>
                <mxCell id="ZOIrYFhIdx7JoIVTX3PV-1" parent="ZOIrYFhIdx7JoIVTX3PV-0"/>
                <mxCell id="zii-z4mTw_xsrP1geYyU-10" style="rounded=1;orthogonalLoop=1;jettySize=auto;html=1;" parent="ZOIrYFhIdx7JoIVTX3PV-1" source="ZOIrYFhIdx7JoIVTX3PV-4" target="zii-z4mTw_xsrP1geYyU-3" edge="1">
                    <mxGeometry relative="1" as="geometry"/>
                </mxCell>
                <mxCell id="ZOIrYFhIdx7JoIVTX3PV-4" value="S&lt;sub&gt;1&lt;/sub&gt;" style="shape=cylinder3;whiteSpace=wrap;html=1;boundedLbl=1;backgroundOutline=1;size=15;" parent="ZOIrYFhIdx7JoIVTX3PV-1" vertex="1">
                    <mxGeometry x="233" y="80" width="40" height="50" as="geometry"/>
                </mxCell>
                <mxCell id="ZOIrYFhIdx7JoIVTX3PV-6" style="edgeStyle=orthogonalEdgeStyle;rounded=1;orthogonalLoop=1;jettySize=auto;html=1;entryX=0.5;entryY=0;entryDx=0;entryDy=0;exitX=0.5;exitY=1;exitDx=0;exitDy=0;exitPerimeter=0;" parent="ZOIrYFhIdx7JoIVTX3PV-1" source="ZOIrYFhIdx7JoIVTX3PV-8" target="ZOIrYFhIdx7JoIVTX3PV-22" edge="1">
                    <mxGeometry relative="1" as="geometry">
                        <mxPoint x="1340.74" y="350" as="targetPoint"/>
                        <Array as="points">
                            <mxPoint x="1251" y="305"/>
                            <mxPoint x="1308" y="305"/>
                            <mxPoint x="1308" y="350"/>
                        </Array>
                    </mxGeometry>
                </mxCell>
                <mxCell id="ZOIrYFhIdx7JoIVTX3PV-7" value="train" style="edgeLabel;html=1;align=center;verticalAlign=middle;resizable=0;points=[];" parent="ZOIrYFhIdx7JoIVTX3PV-6" vertex="1" connectable="0">
                    <mxGeometry x="-0.2942" y="-1" relative="1" as="geometry">
                        <mxPoint x="16" y="-1" as="offset"/>
                    </mxGeometry>
                </mxCell>
                <mxCell id="ZOIrYFhIdx7JoIVTX3PV-8" value="80" style="shape=cylinder3;whiteSpace=wrap;html=1;boundedLbl=1;backgroundOutline=1;size=15;" parent="ZOIrYFhIdx7JoIVTX3PV-1" vertex="1">
                    <mxGeometry x="1230.74" y="215" width="40" height="51" as="geometry"/>
                </mxCell>
                <mxCell id="ZOIrYFhIdx7JoIVTX3PV-9" style="edgeStyle=orthogonalEdgeStyle;rounded=1;orthogonalLoop=1;jettySize=auto;html=1;entryX=0.5;entryY=0;entryDx=0;entryDy=0;exitX=0.5;exitY=1;exitDx=0;exitDy=0;exitPerimeter=0;" parent="ZOIrYFhIdx7JoIVTX3PV-1" source="ZOIrYFhIdx7JoIVTX3PV-11" target="ZOIrYFhIdx7JoIVTX3PV-22" edge="1">
                    <mxGeometry relative="1" as="geometry">
                        <Array as="points">
                            <mxPoint x="1372" y="305"/>
                            <mxPoint x="1308" y="305"/>
                            <mxPoint x="1308" y="350"/>
                        </Array>
                    </mxGeometry>
                </mxCell>
                <mxCell id="ZOIrYFhIdx7JoIVTX3PV-10" value="validate" style="edgeLabel;html=1;align=center;verticalAlign=middle;resizable=0;points=[];" parent="ZOIrYFhIdx7JoIVTX3PV-9" vertex="1" connectable="0">
                    <mxGeometry x="-0.1187" y="-1" relative="1" as="geometry">
                        <mxPoint x="-3" y="1" as="offset"/>
                    </mxGeometry>
                </mxCell>
                <mxCell id="ZOIrYFhIdx7JoIVTX3PV-11" value="20" style="shape=cylinder3;whiteSpace=wrap;html=1;boundedLbl=1;backgroundOutline=1;size=15;" parent="ZOIrYFhIdx7JoIVTX3PV-1" vertex="1">
                    <mxGeometry x="1352" y="215" width="40" height="51" as="geometry"/>
                </mxCell>
                <mxCell id="ZOIrYFhIdx7JoIVTX3PV-12" value="Vortrainierte NLP Modelle" style="ellipse;whiteSpace=wrap;html=1;" parent="ZOIrYFhIdx7JoIVTX3PV-1" vertex="1">
                    <mxGeometry x="425" y="1220" width="105" height="60" as="geometry"/>
                </mxCell>
                <mxCell id="ZOIrYFhIdx7JoIVTX3PV-13" value="&lt;div&gt;Unbekannte&lt;br&gt;Daten&lt;br&gt;&lt;/div&gt;" style="ellipse;shape=cloud;whiteSpace=wrap;html=1;" parent="ZOIrYFhIdx7JoIVTX3PV-1" vertex="1">
                    <mxGeometry x="195" y="1210" width="120" height="80" as="geometry"/>
                </mxCell>
                <mxCell id="ZOIrYFhIdx7JoIVTX3PV-15" value="" style="rounded=1;whiteSpace=wrap;html=1;fillColor=default;" parent="ZOIrYFhIdx7JoIVTX3PV-1" vertex="1">
                    <mxGeometry x="120" y="1380" width="280" height="140" as="geometry"/>
                </mxCell>
                <mxCell id="ZOIrYFhIdx7JoIVTX3PV-16" value="Klassifikations-ergebniss" style="shape=hexagon;perimeter=hexagonPerimeter2;whiteSpace=wrap;html=1;fixedSize=1;fillColor=default;" parent="ZOIrYFhIdx7JoIVTX3PV-1" vertex="1">
                    <mxGeometry x="135" y="1420" width="115" height="60" as="geometry"/>
                </mxCell>
                <mxCell id="ZOIrYFhIdx7JoIVTX3PV-17" value="NLP / Sentiment&lt;br&gt;Analysen" style="shape=hexagon;perimeter=hexagonPerimeter2;whiteSpace=wrap;html=1;fixedSize=1;fillColor=default;" parent="ZOIrYFhIdx7JoIVTX3PV-1" vertex="1">
                    <mxGeometry x="270" y="1420" width="115" height="60" as="geometry"/>
                </mxCell>
                <mxCell id="ZOIrYFhIdx7JoIVTX3PV-18" value="&lt;h1&gt;Analyse&lt;/h1&gt;&lt;p&gt;Mögliche Analysen sind:&lt;/p&gt;&lt;p&gt;- Trend Detection&lt;br&gt;- Parteiflügel&lt;br&gt;- (Validierung auf neuen Datensätzen)&lt;br&gt;&lt;/p&gt;" style="text;html=1;strokeColor=none;fillColor=none;spacing=5;spacingTop=-20;whiteSpace=wrap;overflow=hidden;rounded=0;" parent="ZOIrYFhIdx7JoIVTX3PV-1" vertex="1">
                    <mxGeometry x="590" y="1340" width="150" height="140" as="geometry"/>
                </mxCell>
                <mxCell id="ZOIrYFhIdx7JoIVTX3PV-20" value="3" style="ellipse;whiteSpace=wrap;html=1;fillColor=default;" parent="ZOIrYFhIdx7JoIVTX3PV-1" vertex="1">
                    <mxGeometry x="1323.24" y="340" width="70" height="50" as="geometry"/>
                </mxCell>
                <mxCell id="ZOIrYFhIdx7JoIVTX3PV-21" value="2" style="ellipse;whiteSpace=wrap;html=1;fillColor=default;" parent="ZOIrYFhIdx7JoIVTX3PV-1" vertex="1">
                    <mxGeometry x="1228.24" y="340" width="70" height="50" as="geometry"/>
                </mxCell>
                <mxCell id="ZOIrYFhIdx7JoIVTX3PV-22" value="Model 1" style="ellipse;whiteSpace=wrap;html=1;" parent="ZOIrYFhIdx7JoIVTX3PV-1" vertex="1">
                    <mxGeometry x="1255.74" y="360" width="105" height="60" as="geometry"/>
                </mxCell>
                <mxCell id="ZOIrYFhIdx7JoIVTX3PV-24" style="edgeStyle=orthogonalEdgeStyle;rounded=1;orthogonalLoop=1;jettySize=auto;html=1;entryX=0.5;entryY=0;entryDx=0;entryDy=0;" parent="ZOIrYFhIdx7JoIVTX3PV-1" source="ZOIrYFhIdx7JoIVTX3PV-12" target="ZOIrYFhIdx7JoIVTX3PV-17" edge="1">
                    <mxGeometry relative="1" as="geometry">
                        <Array as="points">
                            <mxPoint x="477" y="1340"/>
                            <mxPoint x="327" y="1340"/>
                        </Array>
                    </mxGeometry>
                </mxCell>
                <mxCell id="ZOIrYFhIdx7JoIVTX3PV-25" style="edgeStyle=orthogonalEdgeStyle;rounded=1;orthogonalLoop=1;jettySize=auto;html=1;" parent="ZOIrYFhIdx7JoIVTX3PV-1" source="ZOIrYFhIdx7JoIVTX3PV-13" target="ZOIrYFhIdx7JoIVTX3PV-17" edge="1">
                    <mxGeometry relative="1" as="geometry">
                        <Array as="points">
                            <mxPoint x="275" y="1340"/>
                            <mxPoint x="327" y="1340"/>
                        </Array>
                    </mxGeometry>
                </mxCell>
                <mxCell id="ZOIrYFhIdx7JoIVTX3PV-26" style="edgeStyle=orthogonalEdgeStyle;rounded=1;orthogonalLoop=1;jettySize=auto;html=1;entryX=0.5;entryY=0;entryDx=0;entryDy=0;" parent="ZOIrYFhIdx7JoIVTX3PV-1" source="ZOIrYFhIdx7JoIVTX3PV-13" target="ZOIrYFhIdx7JoIVTX3PV-16" edge="1">
                    <mxGeometry relative="1" as="geometry">
                        <Array as="points">
                            <mxPoint x="235" y="1340"/>
                            <mxPoint x="193" y="1340"/>
                        </Array>
                    </mxGeometry>
                </mxCell>
                <mxCell id="zii-z4mTw_xsrP1geYyU-11" style="edgeStyle=none;rounded=1;orthogonalLoop=1;jettySize=auto;html=1;" parent="ZOIrYFhIdx7JoIVTX3PV-1" source="zii-z4mTw_xsrP1geYyU-0" target="zii-z4mTw_xsrP1geYyU-6" edge="1">
                    <mxGeometry relative="1" as="geometry"/>
                </mxCell>
                <mxCell id="zii-z4mTw_xsrP1geYyU-0" value="S&lt;sub&gt;2&lt;/sub&gt;" style="shape=cylinder3;whiteSpace=wrap;html=1;boundedLbl=1;backgroundOutline=1;size=15;" parent="ZOIrYFhIdx7JoIVTX3PV-1" vertex="1">
                    <mxGeometry x="312.5" y="80" width="40.5" height="50" as="geometry"/>
                </mxCell>
                <mxCell id="zii-z4mTw_xsrP1geYyU-12" style="edgeStyle=none;rounded=1;orthogonalLoop=1;jettySize=auto;html=1;" parent="ZOIrYFhIdx7JoIVTX3PV-1" source="zii-z4mTw_xsrP1geYyU-1" target="zii-z4mTw_xsrP1geYyU-7" edge="1">
                    <mxGeometry relative="1" as="geometry"/>
                </mxCell>
                <mxCell id="zii-z4mTw_xsrP1geYyU-1" value="S&lt;sub&gt;&lt;i&gt;n&lt;/i&gt;&lt;/sub&gt;" style="shape=cylinder3;whiteSpace=wrap;html=1;boundedLbl=1;backgroundOutline=1;size=15;" parent="ZOIrYFhIdx7JoIVTX3PV-1" vertex="1">
                    <mxGeometry x="392.75" y="80" width="40.25" height="50" as="geometry"/>
                </mxCell>
                <mxCell id="zii-z4mTw_xsrP1geYyU-2" value="Multidomain Data" style="text;html=1;strokeColor=none;fillColor=none;align=center;verticalAlign=middle;whiteSpace=wrap;rounded=0;fontStyle=1" parent="ZOIrYFhIdx7JoIVTX3PV-1" vertex="1">
                    <mxGeometry x="93" y="85" width="80" height="40" as="geometry"/>
                </mxCell>
                <mxCell id="zii-z4mTw_xsrP1geYyU-4" value="" style="swimlane;startSize=0;" parent="ZOIrYFhIdx7JoIVTX3PV-1" vertex="1">
                    <mxGeometry x="221.75" y="195" width="220" height="70" as="geometry">
                        <mxRectangle x="150" y="180" width="50" height="40" as="alternateBounds"/>
                    </mxGeometry>
                </mxCell>
                <mxCell id="zii-z4mTw_xsrP1geYyU-3" value="DU&lt;sub&gt;1&lt;/sub&gt;" style="rounded=1;whiteSpace=wrap;html=1;" parent="zii-z4mTw_xsrP1geYyU-4" vertex="1">
                    <mxGeometry x="10" y="15" width="40" height="40" as="geometry"/>
                </mxCell>
                <mxCell id="zii-z4mTw_xsrP1geYyU-6" value="DU&lt;sub&gt;2&lt;/sub&gt;" style="rounded=1;whiteSpace=wrap;html=1;" parent="zii-z4mTw_xsrP1geYyU-4" vertex="1">
                    <mxGeometry x="90" y="15" width="40" height="40" as="geometry"/>
                </mxCell>
                <mxCell id="zii-z4mTw_xsrP1geYyU-7" value="DU&lt;i&gt;&lt;sub&gt;n&lt;/sub&gt;&lt;/i&gt;" style="rounded=1;whiteSpace=wrap;html=1;" parent="zii-z4mTw_xsrP1geYyU-4" vertex="1">
                    <mxGeometry x="170" y="15" width="40" height="40" as="geometry"/>
                </mxCell>
                <mxCell id="zii-z4mTw_xsrP1geYyU-9" value="Data Understanding" style="text;html=1;strokeColor=none;fillColor=none;align=center;verticalAlign=middle;whiteSpace=wrap;rounded=0;fontStyle=1" parent="ZOIrYFhIdx7JoIVTX3PV-1" vertex="1">
                    <mxGeometry x="83" y="210" width="100" height="40" as="geometry"/>
                </mxCell>
                <mxCell id="zii-z4mTw_xsrP1geYyU-16" style="edgeStyle=orthogonalEdgeStyle;rounded=1;orthogonalLoop=1;jettySize=auto;html=1;exitX=0.5;exitY=1;exitDx=0;exitDy=0;dashed=1;dashPattern=1 4;endArrow=none;endFill=0;" parent="ZOIrYFhIdx7JoIVTX3PV-1" source="zii-z4mTw_xsrP1geYyU-15" target="zii-z4mTw_xsrP1geYyU-4" edge="1">
                    <mxGeometry relative="1" as="geometry">
                        <Array as="points">
                            <mxPoint x="553" y="230"/>
                        </Array>
                    </mxGeometry>
                </mxCell>
                <mxCell id="zii-z4mTw_xsrP1geYyU-26" style="edgeStyle=orthogonalEdgeStyle;rounded=1;orthogonalLoop=1;jettySize=auto;html=1;dashed=1;dashPattern=1 4;exitX=0.5;exitY=1;exitDx=0;exitDy=0;endArrow=none;endFill=0;entryX=1;entryY=0.25;entryDx=0;entryDy=0;" parent="ZOIrYFhIdx7JoIVTX3PV-1" source="zii-z4mTw_xsrP1geYyU-15" target="zii-z4mTw_xsrP1geYyU-22" edge="1">
                    <mxGeometry relative="1" as="geometry">
                        <mxPoint x="603" y="170" as="sourcePoint"/>
                        <Array as="points">
                            <mxPoint x="553" y="350"/>
                        </Array>
                    </mxGeometry>
                </mxCell>
                <mxCell id="zii-z4mTw_xsrP1geYyU-15" value="Common Plots and Functions" style="shape=hexagon;perimeter=hexagonPerimeter2;whiteSpace=wrap;html=1;fixedSize=1;" parent="ZOIrYFhIdx7JoIVTX3PV-1" vertex="1">
                    <mxGeometry x="503" y="85" width="100" height="50" as="geometry"/>
                </mxCell>
                <mxCell id="zii-z4mTw_xsrP1geYyU-21" value="Data Preparation" style="text;html=1;strokeColor=none;fillColor=none;align=center;verticalAlign=middle;whiteSpace=wrap;rounded=0;fontStyle=1" parent="ZOIrYFhIdx7JoIVTX3PV-1" vertex="1">
                    <mxGeometry x="83" y="347" width="100" height="40" as="geometry"/>
                </mxCell>
                <mxCell id="zii-z4mTw_xsrP1geYyU-22" value="" style="swimlane;startSize=0;" parent="ZOIrYFhIdx7JoIVTX3PV-1" vertex="1">
                    <mxGeometry x="221.75" y="332" width="220" height="70" as="geometry">
                        <mxRectangle x="150" y="180" width="50" height="40" as="alternateBounds"/>
                    </mxGeometry>
                </mxCell>
                <mxCell id="zii-z4mTw_xsrP1geYyU-23" value="DP&lt;sub&gt;1&lt;/sub&gt;" style="rounded=1;whiteSpace=wrap;html=1;" parent="zii-z4mTw_xsrP1geYyU-22" vertex="1">
                    <mxGeometry x="10" y="15" width="40" height="40" as="geometry"/>
                </mxCell>
                <mxCell id="zii-z4mTw_xsrP1geYyU-24" value="DP&lt;sub&gt;2&lt;/sub&gt;" style="rounded=1;whiteSpace=wrap;html=1;" parent="zii-z4mTw_xsrP1geYyU-22" vertex="1">
                    <mxGeometry x="90" y="15" width="40" height="40" as="geometry"/>
                </mxCell>
                <mxCell id="zii-z4mTw_xsrP1geYyU-25" value="DP&lt;i&gt;&lt;sub&gt;n&lt;/sub&gt;&lt;/i&gt;" style="rounded=1;whiteSpace=wrap;html=1;" parent="zii-z4mTw_xsrP1geYyU-22" vertex="1">
                    <mxGeometry x="170" y="15" width="40" height="40" as="geometry"/>
                </mxCell>
                <mxCell id="zii-z4mTw_xsrP1geYyU-27" style="edgeStyle=orthogonalEdgeStyle;rounded=1;orthogonalLoop=1;jettySize=auto;html=1;" parent="ZOIrYFhIdx7JoIVTX3PV-1" source="zii-z4mTw_xsrP1geYyU-3" target="zii-z4mTw_xsrP1geYyU-23" edge="1">
                    <mxGeometry relative="1" as="geometry"/>
                </mxCell>
                <mxCell id="zii-z4mTw_xsrP1geYyU-28" style="edgeStyle=orthogonalEdgeStyle;rounded=1;orthogonalLoop=1;jettySize=auto;html=1;" parent="ZOIrYFhIdx7JoIVTX3PV-1" source="zii-z4mTw_xsrP1geYyU-6" target="zii-z4mTw_xsrP1geYyU-24" edge="1">
                    <mxGeometry relative="1" as="geometry"/>
                </mxCell>
                <mxCell id="zii-z4mTw_xsrP1geYyU-29" style="edgeStyle=orthogonalEdgeStyle;rounded=1;orthogonalLoop=1;jettySize=auto;html=1;" parent="ZOIrYFhIdx7JoIVTX3PV-1" source="zii-z4mTw_xsrP1geYyU-7" target="zii-z4mTw_xsrP1geYyU-25" edge="1">
                    <mxGeometry relative="1" as="geometry">
                        <mxPoint x="423" y="300" as="targetPoint"/>
                    </mxGeometry>
                </mxCell>
                <mxCell id="zii-z4mTw_xsrP1geYyU-31" style="edgeStyle=orthogonalEdgeStyle;rounded=1;orthogonalLoop=1;jettySize=auto;html=1;entryX=1;entryY=0.75;entryDx=0;entryDy=0;exitX=0.5;exitY=1;exitDx=0;exitDy=0;dashed=1;dashPattern=1 4;endArrow=none;endFill=0;" parent="ZOIrYFhIdx7JoIVTX3PV-1" source="zii-z4mTw_xsrP1geYyU-30" target="zii-z4mTw_xsrP1geYyU-22" edge="1">
                    <mxGeometry relative="1" as="geometry">
                        <Array as="points">
                            <mxPoint x="693" y="385"/>
                        </Array>
                    </mxGeometry>
                </mxCell>
                <mxCell id="zii-z4mTw_xsrP1geYyU-30" value="Cleaning Pipeline" style="shape=hexagon;perimeter=hexagonPerimeter2;whiteSpace=wrap;html=1;fixedSize=1;" parent="ZOIrYFhIdx7JoIVTX3PV-1" vertex="1">
                    <mxGeometry x="640" y="85" width="105" height="50" as="geometry"/>
                </mxCell>
                <mxCell id="zii-z4mTw_xsrP1geYyU-38" style="edgeStyle=orthogonalEdgeStyle;rounded=1;orthogonalLoop=1;jettySize=auto;html=1;entryX=0.5;entryY=0;entryDx=0;entryDy=0;entryPerimeter=0;endArrow=classic;endFill=1;exitX=0.5;exitY=1;exitDx=0;exitDy=0;exitPerimeter=0;" parent="ZOIrYFhIdx7JoIVTX3PV-1" source="zii-z4mTw_xsrP1geYyU-40" target="ZOIrYFhIdx7JoIVTX3PV-8" edge="1">
                    <mxGeometry relative="1" as="geometry">
                        <mxPoint x="1310.75" y="155" as="sourcePoint"/>
                        <Array as="points">
                            <mxPoint x="1311" y="185"/>
                            <mxPoint x="1251" y="185"/>
                        </Array>
                    </mxGeometry>
                </mxCell>
                <mxCell id="zii-z4mTw_xsrP1geYyU-39" style="edgeStyle=orthogonalEdgeStyle;rounded=1;orthogonalLoop=1;jettySize=auto;html=1;entryX=0.5;entryY=0;entryDx=0;entryDy=0;entryPerimeter=0;endArrow=classic;endFill=1;exitX=0.5;exitY=1;exitDx=0;exitDy=0;exitPerimeter=0;" parent="ZOIrYFhIdx7JoIVTX3PV-1" source="zii-z4mTw_xsrP1geYyU-40" target="ZOIrYFhIdx7JoIVTX3PV-11" edge="1">
                    <mxGeometry relative="1" as="geometry">
                        <mxPoint x="1310.75" y="155" as="sourcePoint"/>
                        <Array as="points">
                            <mxPoint x="1311" y="185"/>
                            <mxPoint x="1372" y="185"/>
                        </Array>
                    </mxGeometry>
                </mxCell>
                <mxCell id="zii-z4mTw_xsrP1geYyU-32" value="Cumulative Data" style="shape=cylinder3;whiteSpace=wrap;html=1;boundedLbl=1;backgroundOutline=1;size=15;" parent="ZOIrYFhIdx7JoIVTX3PV-1" vertex="1">
                    <mxGeometry x="300.47" y="470" width="62.53" height="70" as="geometry"/>
                </mxCell>
                <mxCell id="zii-z4mTw_xsrP1geYyU-33" style="edgeStyle=orthogonalEdgeStyle;rounded=1;orthogonalLoop=1;jettySize=auto;html=1;entryX=0.5;entryY=0;entryDx=0;entryDy=0;entryPerimeter=0;endArrow=classic;endFill=1;exitX=0.5;exitY=1;exitDx=0;exitDy=0;" parent="ZOIrYFhIdx7JoIVTX3PV-1" source="zii-z4mTw_xsrP1geYyU-23" target="zii-z4mTw_xsrP1geYyU-32" edge="1">
                    <mxGeometry relative="1" as="geometry">
                        <Array as="points">
                            <mxPoint x="252" y="430"/>
                            <mxPoint x="332" y="430"/>
                        </Array>
                    </mxGeometry>
                </mxCell>
                <mxCell id="zii-z4mTw_xsrP1geYyU-35" style="edgeStyle=orthogonalEdgeStyle;rounded=1;orthogonalLoop=1;jettySize=auto;html=1;endArrow=none;endFill=0;exitX=0.5;exitY=1;exitDx=0;exitDy=0;entryX=0.5;entryY=0;entryDx=0;entryDy=0;entryPerimeter=0;" parent="ZOIrYFhIdx7JoIVTX3PV-1" source="zii-z4mTw_xsrP1geYyU-24" target="zii-z4mTw_xsrP1geYyU-32" edge="1">
                    <mxGeometry relative="1" as="geometry">
                        <mxPoint x="332" y="390" as="sourcePoint"/>
                        <mxPoint x="343" y="460" as="targetPoint"/>
                        <Array as="points">
                            <mxPoint x="332" y="470"/>
                        </Array>
                    </mxGeometry>
                </mxCell>
                <mxCell id="zii-z4mTw_xsrP1geYyU-36" style="edgeStyle=orthogonalEdgeStyle;rounded=1;orthogonalLoop=1;jettySize=auto;html=1;entryX=0.5;entryY=0;entryDx=0;entryDy=0;entryPerimeter=0;endArrow=classic;endFill=1;exitX=0.5;exitY=1;exitDx=0;exitDy=0;" parent="ZOIrYFhIdx7JoIVTX3PV-1" source="zii-z4mTw_xsrP1geYyU-25" target="zii-z4mTw_xsrP1geYyU-32" edge="1">
                    <mxGeometry relative="1" as="geometry">
                        <Array as="points">
                            <mxPoint x="412" y="430"/>
                            <mxPoint x="332" y="430"/>
                        </Array>
                    </mxGeometry>
                </mxCell>
                <mxCell id="zii-z4mTw_xsrP1geYyU-40" value="Cumulative Data" style="shape=cylinder3;whiteSpace=wrap;html=1;boundedLbl=1;backgroundOutline=1;size=15;" parent="ZOIrYFhIdx7JoIVTX3PV-1" vertex="1">
                    <mxGeometry x="1279.48" y="85" width="62.53" height="70" as="geometry"/>
                </mxCell>
                <mxCell id="zii-z4mTw_xsrP1geYyU-41" value="Modeling" style="text;html=1;strokeColor=none;fillColor=none;align=center;verticalAlign=middle;whiteSpace=wrap;rounded=0;fontStyle=1" parent="ZOIrYFhIdx7JoIVTX3PV-1" vertex="1">
                    <mxGeometry x="1087" y="370" width="100" height="40" as="geometry"/>
                </mxCell>
            </root>
        </mxGraphModel>
    </diagram>
</mxfile>